<svg id="Слой_1" data-name="Слой 1" xmlns="http://www.w3.org/2000/svg" viewBox="0 0 454.96 455.04"><title>Git4</title><path d="M.24,455.37V.33h455v455ZM362.31,143.62c-.38-3.14-.7-6.4-1.19-9.63-.66-4.38-1.32-8.77-2.22-13.11-.85-4.06-1.88-8.09-3.07-12.06-1.59-5.31-3.4-10.55-5.15-15.8a1,1,0,0,0-.79-.48c-.93.12-1.84.34-2.75.55-2.56.59-5.14,1.12-7.68,1.82-3.15.86-6.31,1.74-9.38,2.84-3.93,1.41-7.8,3-11.65,4.59-3.41,1.42-6.85,2.82-10.13,4.52-6.5,3.37-13,6.8-19.3,10.47-5.37,3.12-10.53,6.58-15.75,10a4.13,4.13,0,0,1-3.67.79,39.85,39.85,0,0,0-5.72-1.26c-4.78-.65-9.58-1.27-14.38-1.72-3.65-.34-7.33-.52-11-.59-4.94-.09-9.9-.15-14.84,0-7.22.24-14.43.66-21.63,1.08a91.59,91.59,0,0,0-16.2,2.48,3.12,3.12,0,0,1-2.73-.29c-4.51-3-9.06-5.94-13.67-8.78q-5.33-3.29-10.84-6.29c-4-2.16-8.06-4.18-12.13-6.18-2.53-1.25-5.12-2.38-7.71-3.5-3-1.31-6.06-2.62-9.14-3.78-2.87-1.08-5.78-2-8.71-2.95-2.63-.82-5.29-1.5-7.95-2.22-1.88-.51-3.74-1.09-5.65-1.44-.78-.14-2-.74-2.44.41a96.8,96.8,0,0,0-3.35,9.47c-1.87,6.81-3.79,13.62-5.19,20.53-1.35,6.6-2.24,13.3-3,20-.5,4.31-.47,8.68-.6,13a33.94,33.94,0,0,0,.25,4.18c.25,2.62.5,5.23.83,7.84a2.18,2.18,0,0,1-.51,2,105.3,105.3,0,0,0-11.33,15,84.21,84.21,0,0,0-7,14,105.5,105.5,0,0,0-3.38,10.32,92.37,92.37,0,0,0-2,9.84,78.89,78.89,0,0,0-1.22,10.91c-.11,7.17-.54,14.36.56,21.51.21,1.34.06,2.73.27,4.06,1,6.47,1.9,13,3.12,19.38a95.19,95.19,0,0,0,6.65,21.3,153.73,153.73,0,0,0,7.08,14.23,89.7,89.7,0,0,0,13.94,18.08,80.49,80.49,0,0,0,12.66,10.77c4.41,2.92,8.95,5.65,13.51,8.32a54,54,0,0,0,6.48,3c3,1.26,6,2.5,9.12,3.55,3.24,1.11,6.54,2,9.84,2.93,2.92.79,5.87,1.56,8.84,2.1q6.6,1.2,13.26,2c4.49.56,9,1.11,13.52,1.29,6,.23,11.92.11,17.88.08q32.85-.17,65.7-.4a75,75,0,0,0,7.71-.53c3.69-.41,7.39-.85,11-1.49,4.64-.81,9.26-1.71,13.84-2.81a98.4,98.4,0,0,0,9.7-3A121,121,0,0,0,324.64,350c4.48-2.13,8.83-4.57,13.1-7.11a90.75,90.75,0,0,0,20.78-17.35,99.76,99.76,0,0,0,16.21-24.61A112.27,112.27,0,0,0,382.19,280c1.34-5.42,2.43-10.92,3.26-16.43a133.85,133.85,0,0,0,1.76-16.86c.17-7.32.72-14.68-.51-22-.44-2.6-.53-5.26-1-7.84-.77-3.83-1.6-7.66-2.74-11.39-1-3.37-2.47-6.63-3.81-9.9a64.8,64.8,0,0,0-7.25-13.18c-3-4.24-6.41-8.26-9.58-12.41a2.86,2.86,0,0,1-.51-1.81c.31-3.85.93-7.69,1-11.54C362.87,152.34,362.49,148,362.31,143.62Z" transform="translate(-0.24 -0.33)"/><path d="M111,277.1c.22-3.37.2-6.55.66-9.66a51.31,51.31,0,0,1,7.71-20.69,60.92,60.92,0,0,1,8.79-10.7,39.67,39.67,0,0,1,13.4-8.63,57.16,57.16,0,0,1,17.5-3.71c4.38-.22,8.76-.49,13.14-.49,4,0,8,.34,12,.55,2.83.15,5.66.31,8.49.51,3.58.25,7.15.57,10.72.83,2.23.16,4.46.34,6.69.39,8.35.17,16.7.43,25,.39,5.62,0,11.24-.48,16.86-.78,3-.16,6.06-.38,9.08-.57,6-.37,11.94-.79,17.91-1.09,3.91-.19,7.83-.42,11.73-.24a116.88,116.88,0,0,1,12.11,1.33,56.5,56.5,0,0,1,8.27,1.89,40.32,40.32,0,0,1,14.34,7.94,56.71,56.71,0,0,1,10,11.26,53.73,53.73,0,0,1,6.31,13c2.71,7.89,2.91,16,2.36,24.16a96.15,96.15,0,0,1-1.8,13.52,55.89,55.89,0,0,1-6.21,16.37,51,51,0,0,1-9.38,12,53.58,53.58,0,0,1-14.48,9.84c-3.55,1.6-7.11,3.22-10.79,4.5A101.38,101.38,0,0,1,290.74,342c-4,.91-8,1.69-12,2.31s-8,1-12,1.38c-2.74.27-5.49.43-8.24.56-5.3.26-10.6.59-15.9.67-9.35.15-18.71.17-28.07.17-4,0-8-.07-12-.32-5.77-.36-11.53-.82-17.28-1.42-4.76-.5-9.53-1.1-14.24-2-4.11-.74-8.19-1.78-12.21-2.92a95.38,95.38,0,0,1-11-3.7,66.07,66.07,0,0,1-15.93-9.32,52.91,52.91,0,0,1-17-24.82,64.07,64.07,0,0,1-3.13-14.49C111.47,284.39,111.28,280.64,111,277.1Zm194.56,4.31c-.12-1.31-.27-2.62-.35-3.93A35.83,35.83,0,0,0,301,262.66a24.36,24.36,0,0,0-8.09-9.29c-6.22-4-12.69-4.34-19.09-.57-5.45,3.2-8.81,8.26-11,14a39,39,0,0,0-2.46,11.55A39.42,39.42,0,0,0,265,300.65c2.73,4.87,6.36,8.75,11.68,10.83a16.44,16.44,0,0,0,13.7-.55,24,24,0,0,0,10.38-10.32A40.35,40.35,0,0,0,305.61,281.41ZM150,280.92a42.22,42.22,0,0,0,2.8,15.5,27.35,27.35,0,0,0,10.29,13.3c5.51,3.65,11.32,3.88,17.18,1.2a21.08,21.08,0,0,0,8.39-7.33,37.2,37.2,0,0,0,6-15.07,41.9,41.9,0,0,0-.36-16.29A31.61,31.61,0,0,0,187.66,258a22.62,22.62,0,0,0-8.31-6.5,18.49,18.49,0,0,0-10.6-.84,14.45,14.45,0,0,0-4.68,1.78,26.27,26.27,0,0,0-10.52,12.21A40.89,40.89,0,0,0,150,280.92Z" transform="translate(-0.24 -0.33)"/></svg>