<?xml version="1.0" encoding="UTF-8"?>
<!DOCTYPE svg PUBLIC "-//W3C//DTD SVG 1.0//EN" "http://www.w3.org/TR/2001/REC-SVG-20010904/DTD/svg10.dtd">
<!-- Creator: CorelDRAW 2017 -->
<svg xmlns="http://www.w3.org/2000/svg" xml:space="preserve" width="120mm" height="120mm" version="1.0" style="shape-rendering:geometricPrecision; text-rendering:geometricPrecision; image-rendering:optimizeQuality; fill-rule:evenodd; clip-rule:evenodd"
viewBox="0 0 12000 12000"
 xmlns:xlink="http://www.w3.org/1999/xlink">
 <defs>
  <style type="text/css">
   <![CDATA[
    .fil0 {fill:#5880C1}
    .fil1 {fill:#E4F0FE}
   ]]>
  </style>
 </defs>
 <g id="Слой_x0020_1">
  <metadata id="CorelCorpID_0Corel-Layer"/>
  <rect id="Rectangle-path" class="fil0" x="0" y="0" width="12000" height="12000"/>
  <path id="Shape" class="fil1" d="M2861.54 4012.31c12.31,-98.46 -30.77,-196.93 -104.62,-264.62l-750.77 -904.62 0 -135.38 2338.47 0 1809.23 3963.08 1587.69 -3963.08 2227.69 0 0 135.38 -646.16 615.39c-55.38,43.07 -80,110.77 -73.84,178.46l0 4535.38c-12.31,67.69 18.46,135.39 73.84,178.47l627.7 615.38 0 135.38 -3163.08 0.01 0 -135.39 652.31 -633.84c61.54,-61.54 61.54,-80 61.54,-178.46l0 -3661.54 -1809.23 4596.92 -246.16 0 -2104.61 -4596.93 0 3083.08c-18.47,129.23 24.61,258.46 116.92,350.77l849.23 1027.69 0 135.38 -2400 0.01 0 -135.38 849.23 -1027.7c92.31,-92.3 129.23,-227.69 110.77,-350.77l0 -3563.07 -6.15 0z"/>
 </g>
</svg>
